<?xml version="1.0" encoding="UTF-8" standalone="no"?>
<svg
   xmlns:dc="http://purl.org/dc/elements/1.1/"
   xmlns:cc="http://creativecommons.org/ns#"
   xmlns:rdf="http://www.w3.org/1999/02/22-rdf-syntax-ns#"
   xmlns:svg="http://www.w3.org/2000/svg"
   xmlns="http://www.w3.org/2000/svg"
   xmlns:xlink="http://www.w3.org/1999/xlink"
   xmlns:sodipodi="http://sodipodi.sourceforge.net/DTD/sodipodi-0.dtd"
   xmlns:inkscape="http://www.inkscape.org/namespaces/inkscape"
   width="288"
   height="160"
   viewBox="0 0 76.2 42.333"
   version="1.1"
   id="svg29"
   sodipodi:docname="t_map-table-02.svg"
   inkscape:version="0.92.3 (2405546, 2018-03-11)">
  <metadata
     id="metadata33">
    <rdf:RDF>
      <cc:Work
         rdf:about="">
        <dc:format>image/svg+xml</dc:format>
        <dc:type
           rdf:resource="http://purl.org/dc/dcmitype/StillImage" />
        <dc:title></dc:title>
      </cc:Work>
    </rdf:RDF>
  </metadata>
  <sodipodi:namedview
     pagecolor="#ffffff"
     bordercolor="#666666"
     borderopacity="1"
     objecttolerance="10"
     gridtolerance="10"
     guidetolerance="10"
     inkscape:pageopacity="0"
     inkscape:pageshadow="2"
     inkscape:window-width="640"
     inkscape:window-height="480"
     id="namedview31"
     showgrid="false"
     inkscape:zoom="0.98611111"
     inkscape:cx="144"
     inkscape:cy="80"
     inkscape:window-x="0"
     inkscape:window-y="0"
     inkscape:window-maximized="0"
     inkscape:current-layer="svg29" />
  <defs
     id="defs15">
    <pattern
       xlink:href="#a"
       id="d"
       patternTransform="matrix(.18709 -.18709 .18709 .18709 14.803 297)" />
    <pattern
       xlink:href="#b"
       id="a"
       patternTransform="rotate(-45 61.373 -257.421)" />
    <pattern
       xlink:href="#c"
       id="b"
       patternTransform="matrix(.18709 -.18709 .18709 .18709 14.803 297)" />
    <pattern
       patternUnits="userSpaceOnUse"
       width="159.999"
       height="159.999"
       patternTransform="translate(19.05 305.467) scale(.26458)"
       id="c">
      <path
         fill="none"
         stroke-width="3.78"
         d="M0 0h159.999v159.999H0z"
         id="path5" />
      <path
         d="M0 0h80v80H0zm80 80h79.999v79.999h-80z"
         fill="#81431e"
         id="path7" />
      <path
         d="M80 0h79.999v80h-80zM0 80h80v79.999H0z"
         fill="#572b11"
         id="path9" />
    </pattern>
    <clipPath
       id="e">
      <path
         d="M-33.88 305.467h67.733c2.646 0 4.233 1.587 4.233 4.233v33.867c0 2.645-1.587 4.233-4.233 4.233H-33.88c-2.646 0-4.234-1.588-4.234-4.233V309.7c0-2.646 1.588-4.233 4.234-4.233z"
         fill="url(#d)"
         stroke-width="3.098"
         id="path12" />
    </clipPath>
  </defs>
  <g
     stroke="#191919"
     id="g27"
     style="opacity:0.3">
    <path
       d="M-33.88 305.467h67.733c2.646 0 4.233 1.587 4.233 4.233v33.867c0 2.645-1.587 4.233-4.233 4.233H-33.88c-2.646 0-4.234-1.588-4.234-4.233V309.7c0-2.646 1.588-4.233 4.234-4.233z"
       clip-path="url(#e)"
       fill="url(#b)"
       stroke-width="3.175"
       transform="translate(38.114 -305.467)"
       id="path17"
       style="" />
    <g
       transform="translate(52.917 -261.546)"
       id="g25"
       style="">
      <circle
         r="5.821"
         cy="282.712"
         cx="-14.817"
         fill="#4d2600"
         stroke-width="1.587"
         id="circle19"
         style="" />
      <circle
         cx="-13.229"
         cy="282.712"
         r="1.587"
         fill="#ff7800"
         stroke-width=".794"
         id="circle21"
         style="" />
      <path
         d="M-17.462 280.067s-.864 2.7-.53 3.704c.28.836 2.646 2.646 2.646 2.646s-1.894-3.59-2.116-6.35z"
         fill="#f7ff00"
         stroke-width=".794"
         id="path23"
         style="" />
    </g>
  </g>
</svg>
