<?xml version="1.0" encoding="UTF-8" standalone="no"?>
<svg
   xmlns:dc="http://purl.org/dc/elements/1.1/"
   xmlns:cc="http://creativecommons.org/ns#"
   xmlns:rdf="http://www.w3.org/1999/02/22-rdf-syntax-ns#"
   xmlns:svg="http://www.w3.org/2000/svg"
   xmlns="http://www.w3.org/2000/svg"
   xmlns:sodipodi="http://sodipodi.sourceforge.net/DTD/sodipodi-0.dtd"
   xmlns:inkscape="http://www.inkscape.org/namespaces/inkscape"
   width="256"
   height="256"
   id="svg8"
   version="1.1"
   sodipodi:docname="part-smoke-03t.svg"
   inkscape:version="0.92.3 (2405546, 2018-03-11)">
  <metadata
     id="metadata3827">
    <rdf:RDF>
      <cc:Work
         rdf:about="">
        <dc:format>image/svg+xml</dc:format>
        <dc:type
           rdf:resource="http://purl.org/dc/dcmitype/StillImage" />
        <dc:title></dc:title>
      </cc:Work>
    </rdf:RDF>
  </metadata>
  <sodipodi:namedview
     pagecolor="#ffffff"
     bordercolor="#666666"
     borderopacity="1"
     objecttolerance="10"
     gridtolerance="10"
     guidetolerance="10"
     inkscape:pageopacity="0"
     inkscape:pageshadow="2"
     inkscape:window-width="640"
     inkscape:window-height="480"
     id="namedview3825"
     showgrid="false"
     inkscape:zoom="0.921875"
     inkscape:cx="128"
     inkscape:cy="128"
     inkscape:window-x="0"
     inkscape:window-y="0"
     inkscape:window-maximized="0"
     inkscape:current-layer="svg8" />
  <defs
     id="defs4">
    <style
       id="style2" />
  </defs>
  <path
     d="M153.944 3.732c21.6 3.695 44.724 13.806 64.78 35.301 20.053 21.492 35.644 51.061 37.255 85.4 1.612 34.338-9.027 63.69-30.663 86.599-21.64 22.91-53.34 37.002-83.96 38.637-30.62 1.635-60.143-6.821-81.125-18.522-20.979-11.698-30.633-22.18-41.135-40.136-9.648-16.498-14.955-36.457-15.365-56.495-.407-20.041 1.81-40.007 10.37-59.338 8.56-19.328 16.92-33.322 31.178-44.777C56.9 20.957 63.915 16.287 86.589 7.673c17.856-5.2 46.625-6.574 67.355-3.941z"
     id="path9768"
     fill="#f9f9f9"
     stroke-width="10.515"
     style="opacity:0.15" />
  <path
     id="path820"
     d="M149.8 3.735c27.702 2.17 48.69 15.027 68.747 36.521 20.053 21.492 35.644 51.062 37.255 85.4 1.611 34.339-9.027 63.69-30.664 86.6-21.64 22.909-53.34 37.001-83.96 38.637-30.619 1.635-60.143-6.822-81.124-18.523-59.652-45.992 10.854 14.537 92.516-13.473 49.634-17.025 67.069-40.467 62.003-95.578C206.503 35.526 131.501 2.256 149.8 3.735z"
     fill="#eee"
     stroke-width="10.515"
     style="opacity:0.15" />
</svg>
